<svg width="196" height="58" viewBox="0 0 196 58" fill="none" xmlns="http://www.w3.org/2000/svg">
<path d="M188.775 57.7143H8.15075C4.17702 57.7143 0.925781 54.4678 0.925781 50.5V7.21428C0.925781 3.24643 4.17702 0 8.15075 0H188.775C192.749 0 196 3.24643 196 7.21428V50.5C196 54.4678 192.749 57.7143 188.775 57.7143Z" fill="black"/>
<path d="M188.775 1.15429C192.127 1.15429 194.844 3.86686 194.844 7.21428V50.5C194.844 53.8474 192.127 56.56 188.775 56.56H8.15075C4.79837 56.56 2.08178 53.8474 2.08178 50.5V7.21428C2.08178 3.86686 4.79837 1.15429 8.15075 1.15429H188.775ZM188.775 0H8.15075C4.17702 0 0.925781 3.24643 0.925781 7.21428V50.5C0.925781 54.4678 4.17702 57.7143 8.15075 57.7143H188.775C192.749 57.7143 196 54.4678 196 50.5V7.21428C196 3.24643 192.749 0 188.775 0Z" fill="#A6A6A6"/>
<path d="M69.4459 14.7745C69.4459 15.9865 69.0847 16.9532 68.3622 17.6602C67.553 18.5115 66.4837 18.9444 65.1832 18.9444C63.926 18.9444 62.8712 18.5115 61.9897 17.6458C61.1083 16.7801 60.6748 15.698 60.6748 14.4282C60.6748 13.1441 61.1083 12.0764 61.9897 11.2107C62.8712 10.345 63.926 9.91211 65.1832 9.91211C65.8045 9.91211 66.397 10.0275 66.9605 10.2728C67.5241 10.5181 67.972 10.8355 68.3188 11.2395L67.553 12.0043C66.975 11.3261 66.1947 10.9798 65.1832 10.9798C64.2728 10.9798 63.4781 11.2973 62.8134 11.9465C62.1487 12.5814 61.8164 13.4183 61.8164 14.4427C61.8164 15.4671 62.1487 16.304 62.8134 16.9388C63.4781 17.5737 64.2728 17.9055 65.1832 17.9055C66.1513 17.9055 66.9605 17.5881 67.6108 16.9388C68.0298 16.5204 68.2755 15.9288 68.3333 15.1785H65.1832V14.1252H69.3881C69.417 14.3561 69.4459 14.5725 69.4459 14.7745Z" fill="white" stroke="white" stroke-width="0.2" stroke-miterlimit="10"/>
<path d="M76.1073 11.1673H72.1625V13.9088H75.7171V14.9476H72.1625V17.689H76.1073V18.7567H71.0498V10.0996H76.1073V11.1673Z" fill="white" stroke="white" stroke-width="0.2" stroke-miterlimit="10"/>
<path d="M80.8029 18.7567H79.6903V11.1673H77.2627V10.0996H83.2161V11.1673H80.7885V18.7567H80.8029Z" fill="white" stroke="white" stroke-width="0.2" stroke-miterlimit="10"/>
<path d="M87.5371 18.7567V10.0996H88.6498V18.7567H87.5371Z" fill="white" stroke="white" stroke-width="0.2" stroke-miterlimit="10"/>
<path d="M93.592 18.7567H92.4793V11.1673H90.0518V10.0996H96.0051V11.1673H93.5775V18.7567H93.592Z" fill="white" stroke="white" stroke-width="0.2" stroke-miterlimit="10"/>
<path d="M107.292 17.6314C106.439 18.5115 105.384 18.9444 104.113 18.9444C102.841 18.9444 101.786 18.5115 100.934 17.6314C100.081 16.7512 99.6621 15.6835 99.6621 14.4282C99.6621 13.173 100.081 12.0908 100.934 11.2251C101.786 10.345 102.841 9.91211 104.113 9.91211C105.37 9.91211 106.425 10.345 107.292 11.2251C108.144 12.1053 108.578 13.173 108.578 14.4282C108.563 15.698 108.144 16.7657 107.292 17.6314ZM101.757 16.91C102.393 17.5592 103.188 17.8767 104.113 17.8767C105.037 17.8767 105.832 17.5592 106.468 16.91C107.104 16.2607 107.436 15.4382 107.436 14.4282C107.436 13.4183 107.118 12.5958 106.468 11.9465C105.832 11.2973 105.037 10.9654 104.113 10.9654C103.188 10.9654 102.393 11.2828 101.757 11.9321C101.122 12.5958 100.789 13.4183 100.789 14.4282C100.789 15.4382 101.122 16.2607 101.757 16.91Z" fill="white" stroke="white" stroke-width="0.2" stroke-miterlimit="10"/>
<path d="M110.137 18.7567V10.0996H111.495L115.714 16.8377H115.758L115.714 15.164V10.0996H116.827V18.7567H115.671L111.264 11.7012H111.22L111.264 13.3749V18.7567H110.137Z" fill="white" stroke="white" stroke-width="0.2" stroke-miterlimit="10"/>
<path d="M99.3869 31.381C95.9911 31.381 93.2167 33.9637 93.2167 37.5132C93.2167 41.0482 95.9911 43.6453 99.3869 43.6453C102.783 43.6453 105.557 41.0482 105.557 37.5132C105.557 33.9637 102.783 31.381 99.3869 31.381ZM99.3869 41.2357C97.5228 41.2357 95.9189 39.7063 95.9189 37.5132C95.9189 35.3056 97.5228 33.7906 99.3869 33.7906C101.251 33.7906 102.855 35.3056 102.855 37.5132C102.855 39.7063 101.236 41.2357 99.3869 41.2357ZM85.9195 31.381C82.5238 31.381 79.7494 33.9637 79.7494 37.5132C79.7494 41.0482 82.5238 43.6453 85.9195 43.6453C89.3153 43.6453 92.0897 41.0482 92.0897 37.5132C92.0897 33.9637 89.3153 31.381 85.9195 31.381ZM85.9195 41.2357C84.0555 41.2357 82.4515 39.7063 82.4515 37.5132C82.4515 35.3056 84.0555 33.7906 85.9195 33.7906C87.7836 33.7906 89.3875 35.3056 89.3875 37.5132C89.3875 39.7063 87.7836 41.2357 85.9195 41.2357ZM69.909 33.2712V35.8683H76.1514C75.9635 37.3256 75.4722 38.4077 74.7353 39.1436C73.8249 40.0526 72.4088 41.0482 69.9234 41.0482C66.0798 41.0482 63.0742 37.9605 63.0742 34.1225C63.0742 30.2845 66.0798 27.1968 69.9234 27.1968C71.9898 27.1968 73.507 28.0048 74.6197 29.058L76.4548 27.2256C74.8942 25.7395 72.8279 24.5996 69.909 24.5996C64.6492 24.5996 60.2275 28.8705 60.2275 34.1369C60.2275 39.3889 64.6492 43.6742 69.909 43.6742C72.7556 43.6742 74.8942 42.7507 76.5704 41.0049C78.29 39.2879 78.8246 36.8639 78.8246 34.916C78.8246 34.31 78.7813 33.7473 78.6801 33.2856H69.909V33.2712ZM135.382 35.2912C134.876 33.9205 133.315 31.381 130.122 31.381C126.957 31.381 124.327 33.8627 124.327 37.5132C124.327 40.9472 126.928 43.6453 130.425 43.6453C133.243 43.6453 134.876 41.9283 135.541 40.9327L133.445 39.5332C132.752 40.5576 131.798 41.2357 130.425 41.2357C129.053 41.2357 128.07 40.6009 127.449 39.3745L135.671 35.9837L135.382 35.2912ZM127.001 37.34C126.928 34.9737 128.836 33.7617 130.209 33.7617C131.278 33.7617 132.188 34.2956 132.492 35.0603L127.001 37.34ZM120.325 43.2846H123.027V25.2489H120.325V43.2846ZM115.903 32.7517H115.802C115.195 32.0303 114.039 31.381 112.565 31.381C109.487 31.381 106.67 34.0792 106.67 37.542C106.67 40.976 109.487 43.6597 112.565 43.6597C114.025 43.6597 115.195 43.0105 115.802 42.2602H115.889V43.1403C115.889 45.4922 114.632 46.7475 112.609 46.7475C110.961 46.7475 109.935 45.5643 109.516 44.5687L107.161 45.5499C107.84 47.1803 109.632 49.1715 112.609 49.1715C115.773 49.1715 118.446 47.3102 118.446 42.7796V31.7562H115.889V32.7517H115.903ZM112.796 41.2357C110.932 41.2357 109.372 39.6775 109.372 37.542C109.372 35.3777 110.932 33.805 112.796 33.805C114.632 33.805 116.077 35.3922 116.077 37.542C116.091 39.6775 114.646 41.2357 112.796 41.2357ZM148.04 25.2489H141.581V43.2846H144.283V36.4455H148.054C151.045 36.4455 153.979 34.2812 153.979 30.8472C153.979 27.4132 151.016 25.2489 148.04 25.2489ZM148.098 33.9349H144.268V27.745H148.098C150.121 27.745 151.262 29.4188 151.262 30.8328C151.262 32.2468 150.121 33.9349 148.098 33.9349ZM164.773 31.3522C162.822 31.3522 160.799 32.2179 159.961 34.108L162.36 35.1036C162.865 34.108 163.819 33.7762 164.816 33.7762C166.218 33.7762 167.634 34.613 167.648 36.0992V36.2867C167.157 36.0126 166.117 35.5942 164.831 35.5942C162.244 35.5942 159.629 37.0082 159.629 39.6486C159.629 42.0582 161.738 43.6165 164.108 43.6165C165.914 43.6165 166.926 42.8085 167.547 41.8562H167.634V43.2557H170.235V36.3445C170.249 33.1413 167.851 31.3522 164.773 31.3522ZM164.44 41.2357C163.559 41.2357 162.331 40.7885 162.331 39.7063C162.331 38.3212 163.862 37.7873 165.192 37.7873C166.377 37.7873 166.94 38.047 167.648 38.3933C167.446 40.0526 166.001 41.2357 164.44 41.2357ZM179.729 31.7417L176.636 39.562H176.55L173.342 31.7417H170.437L175.249 42.6786L172.504 48.753H175.321L182.734 31.7417H179.729ZM155.453 43.2846H158.155V25.2489H155.453V43.2846Z" fill="white"/>
<path d="M16.0114 10.8793C15.5923 11.3266 15.3467 12.0192 15.3467 12.8993V44.8153C15.3467 45.7099 15.5923 46.4024 16.0114 46.8353L16.1125 46.9363L34.016 29.0737V28.8573V28.6409L16.1125 10.7783L16.0114 10.8793Z" fill="url(#paint0_linear)"/>
<path d="M39.9835 35.0325L34.0156 29.0735V28.8571V28.6406L39.9835 22.6816L40.1135 22.7538L47.1795 26.7649C49.2025 27.9048 49.2025 29.7805 47.1795 30.9348L40.1135 34.9459L39.9835 35.0325Z" fill="url(#paint1_linear)"/>
<path d="M40.1132 34.9607L34.0154 28.8574L16.0107 46.8354C16.6754 47.5424 17.7736 47.629 19.0163 46.922L40.1132 34.9607Z" fill="url(#paint2_linear)"/>
<path d="M40.114 22.7684L19.0027 10.7927C17.76 10.0857 16.6618 10.1722 15.9971 10.8792L34.0161 28.8572L40.114 22.7684Z" fill="url(#paint3_linear)"/>
<path opacity="0.2" d="M39.9842 34.8184L19.0029 46.7219C17.8324 47.3856 16.7776 47.3424 16.1129 46.7364L16.0117 46.8374L16.1129 46.9384C16.792 47.5444 17.8324 47.5876 19.0029 46.9239L40.1142 34.9482L39.9842 34.8184Z" fill="black"/>
<path opacity="0.12" d="M16.0124 46.6352C15.5933 46.1879 15.3477 45.4954 15.3477 44.6152V44.8317C15.3477 45.7262 15.5933 46.4188 16.0124 46.8517L16.1135 46.7507L16.0124 46.6352Z" fill="black"/>
<path opacity="0.12" d="M47.1793 30.7331L39.9688 34.8164L40.0988 34.9463L47.1648 30.9351C48.1763 30.358 48.6821 29.6077 48.6821 28.8574C48.6098 29.5356 48.1041 30.2137 47.1793 30.7331Z" fill="black"/>
<path opacity="0.25" d="M19.0023 10.9944L47.1797 26.9812C48.09 27.5007 48.6102 28.1644 48.6969 28.8569C48.6969 28.1067 48.1912 27.3419 47.1797 26.7792L19.0023 10.7924C16.9793 9.65252 15.332 10.6048 15.332 12.9134V13.1298C15.332 10.8068 16.9938 9.85452 19.0023 10.9944Z" fill="white"/>
<defs>
<linearGradient id="paint0_linear" x1="32.4259" y1="12.5672" x2="8.21137" y2="36.8176" gradientUnits="userSpaceOnUse">
<stop stop-color="#00A0FF"/>
<stop offset="0.00657445" stop-color="#00A1FF"/>
<stop offset="0.2601" stop-color="#00BEFF"/>
<stop offset="0.5122" stop-color="#00D2FF"/>
<stop offset="0.7604" stop-color="#00DFFF"/>
<stop offset="1" stop-color="#00E3FF"/>
</linearGradient>
<linearGradient id="paint1_linear" x1="49.8156" y1="28.8594" x2="14.8513" y2="28.8594" gradientUnits="userSpaceOnUse">
<stop stop-color="#FFE000"/>
<stop offset="0.4087" stop-color="#FFBD00"/>
<stop offset="0.7754" stop-color="#FFA500"/>
<stop offset="1" stop-color="#FF9C00"/>
</linearGradient>
<linearGradient id="paint2_linear" x1="36.7997" y1="32.1705" x2="3.9628" y2="65.0561" gradientUnits="userSpaceOnUse">
<stop stop-color="#FF3A44"/>
<stop offset="1" stop-color="#C31162"/>
</linearGradient>
<linearGradient id="paint3_linear" x1="11.4702" y1="0.254465" x2="26.1334" y2="14.9392" gradientUnits="userSpaceOnUse">
<stop stop-color="#32A071"/>
<stop offset="0.0685" stop-color="#2DA771"/>
<stop offset="0.4762" stop-color="#15CF74"/>
<stop offset="0.8009" stop-color="#06E775"/>
<stop offset="1" stop-color="#00F076"/>
</linearGradient>
</defs>
</svg>
